<svg xmlns="http://www.w3.org/2000/svg" viewBox="0 0 64 64"><g data-name="Layer 2"><rect width="58" height="42" x="3" y="11" fill="#31b6eb" rx="5"/><path fill="#75f0e6" d="M56,11H52a5,5,0,0,1,5,5V48a5,5,0,0,1-5,5h4a5,5,0,0,0,5-5V16A5,5,0,0,0,56,11Z"/><path fill="#00a49c" d="M7,48V16a5,5,0,0,1,5-5H8a5,5,0,0,0-5,5V48a5,5,0,0,0,5,5h4A5,5,0,0,1,7,48Z"/><path fill="#f08f1f" d="M49,25V46a1,1,0,0,1-1,1H40.47a18.24,18.24,0,0,0-8.07,1.91,1,1,0,0,1-.85,0,18.14,18.14,0,0,0-8-1.89H16a1,1,0,0,1-1-1V25a1,1,0,0,1,1-1c7.54,0,7.74,0,9,.06a20,20,0,0,1,7,1.84A20,20,0,0,1,40.47,24H48A1,1,0,0,1,49,25Z"/><path fill="#008abd" d="M25,24.06V38a1,1,0,0,1-1.45.89L22,38.12l-1.55.77A1,1,0,0,1,19,38V24C23.35,24,23.79,24,25,24.06Z"/><path fill="#ffd138" d="M48,24H40.47A20,20,0,0,0,32,25.9V49a1.11,1.11,0,0,0,.4-.09l.05,0a18.14,18.14,0,0,1,8-1.89H48a1,1,0,0,0,1-1V25A1,1,0,0,0,48,24Z"/><path fill="#747d80" d="M61,16a5,5,0,0,0-5-5H8a5,5,0,0,0-5,5v5H61Z"/><path fill="#5a6366" d="M12,11H8a5,5,0,0,0-5,5v5H7V16A5,5,0,0,1,12,11Z"/><path fill="#8d9699" d="M56,11H52a5,5,0,0,1,5,5v5h4V16A5,5,0,0,0,56,11Z"/></g><g data-name="Layer 3"><circle cx="54.5" cy="16.5" r="1.5" fill="#0a0c0c"/><circle cx="49.5" cy="16.5" r="1.5" fill="#0a0c0c"/><circle cx="44.5" cy="16.5" r="1.5" fill="#0a0c0c"/><path fill="#0a0c0c" d="M56,11H8a5,5,0,0,0-5,5V48a5,5,0,0,0,5,5H56a5,5,0,0,0,5-5V16A5,5,0,0,0,56,11ZM8,13H56a3,3,0,0,1,3,3v4H5V16A3,3,0,0,1,8,13ZM56,51H8a3,3,0,0,1-3-3V22H59V48A3,3,0,0,1,56,51Z"/><path fill="#0a0c0c" d="M48,24H40.47A20,20,0,0,0,32,25.9,20.35,20.35,0,0,0,24,24H16a1,1,0,0,0-1,1V46a1,1,0,0,0,1,1h7.53a18.24,18.24,0,0,1,8.07,1.91.93.93,0,0,0,.8,0A18.22,18.22,0,0,1,40.47,47H48a1,1,0,0,0,1-1V25A1,1,0,0,0,48,24ZM23,26V36.38l-.55-.27a1,1,0,0,0-.9,0l-.55.27V26ZM17,45V26h2V38a1,1,0,0,0,1.45.89L22,38.12l1.55.77A1,1,0,0,0,25,38V26.08a18.08,18.08,0,0,1,6,1.55V46.45A20.14,20.14,0,0,0,23.53,45Zm30,0H40.47A20.14,20.14,0,0,0,33,46.45V27.63A18,18,0,0,1,40.47,26H47Z"/><rect width="8" height="2" x="36" y="40" fill="#0a0c0c"/><rect width="5" height="2" x="36" y="36" fill="#0a0c0c"/><rect width="8" height="2" x="36" y="32" fill="#0a0c0c"/></g></svg>